<svg xmlns="http://www.w3.org/2000/svg" width="3000" height="736" viewBox="0 0 3000 736" version="1.1"><path d="M 1732.500 19.255 C 1724.800 19.670, 1716.062 20.015, 1713.082 20.022 C 1710.102 20.029, 1707.100 20.502, 1706.410 21.074 C 1705.530 21.805, 1704.528 21.725, 1703.048 20.807 C 1701.304 19.727, 1700.795 19.732, 1700.105 20.839 C 1699.647 21.576, 1698.198 22.043, 1696.886 21.877 C 1694.050 21.519, 1685 23.925, 1685 25.036 C 1685 25.463, 1684.102 25.578, 1683.004 25.291 C 1681.906 25.004, 1679.475 25.496, 1677.603 26.384 C 1675.730 27.273, 1673.366 28.014, 1672.349 28.032 C 1671.332 28.049, 1669.626 28.724, 1668.559 29.532 C 1667.491 30.339, 1665.605 31, 1664.368 31 C 1663.130 31, 1661.880 31.385, 1661.590 31.855 C 1661.299 32.325, 1658.406 33.678, 1655.160 34.861 C 1651.914 36.045, 1647.563 38.360, 1645.492 40.007 C 1643.420 41.653, 1641.224 43.007, 1640.612 43.015 C 1640.001 43.024, 1637.250 44.619, 1634.500 46.560 C 1624.906 53.333, 1619.088 57, 1617.937 57 C 1616.622 57, 1610.038 62.338, 1599.034 72.326 C 1590.295 80.259, 1589.038 80.395, 1580.254 74.364 C 1577.369 72.383, 1568.369 67.426, 1560.254 63.348 C 1552.140 59.270, 1543.025 54.609, 1540 52.991 C 1536.975 51.372, 1533.713 50.293, 1532.750 50.591 C 1531.787 50.890, 1531 50.699, 1531 50.165 C 1531 49.632, 1525.713 47.559, 1519.250 45.558 C 1512.787 43.556, 1506.150 41.435, 1504.500 40.843 C 1501.317 39.702, 1493.442 37.649, 1486 36.022 C 1483.525 35.481, 1478.350 34.807, 1474.500 34.525 C 1469.993 34.194, 1467.114 33.487, 1466.415 32.540 C 1465.701 31.572, 1464.993 31.407, 1464.342 32.058 C 1463.691 32.709, 1462.184 32.569, 1459.927 31.648 C 1458.042 30.879, 1452.225 29.495, 1447 28.572 C 1441.775 27.649, 1433.675 26.025, 1429 24.965 C 1424.325 23.904, 1417.350 22.637, 1413.500 22.149 C 1404.500 21.009, 1384 20.899, 1384 21.990 C 1384 22.450, 1382.763 22.479, 1381.250 22.053 C 1379.509 21.563, 1377.583 21.754, 1376 22.574 C 1374.625 23.286, 1372.224 24.141, 1370.664 24.475 C 1367.411 25.170, 1358.515 33.103, 1356.400 37.193 C 1354.430 41.003, 1353.612 50.688, 1354.854 55.500 C 1355.422 57.700, 1356.340 61.300, 1356.894 63.500 C 1357.448 65.700, 1358.887 68.299, 1360.092 69.275 C 1361.297 70.251, 1362.062 71.271, 1361.792 71.542 C 1361.521 71.812, 1354.370 72.720, 1345.900 73.559 C 1337.430 74.398, 1324.875 76.256, 1318 77.689 C 1311.125 79.121, 1302.575 80.623, 1299 81.026 C 1292.578 81.750, 1277.486 85.506, 1269.080 88.472 C 1266.698 89.312, 1263.972 90, 1263.024 90 C 1260.107 90, 1225.837 101.838, 1224.036 103.467 C 1223.105 104.310, 1221.669 105, 1220.846 105 C 1217.958 105, 1205.283 109.800, 1194.943 114.809 C 1189.199 117.591, 1181.125 121.270, 1177 122.984 C 1170.102 125.850, 1165.478 128.346, 1149.849 137.640 C 1146.741 139.488, 1143.795 141, 1143.303 141 C 1142.810 141, 1141.528 141.665, 1140.453 142.478 C 1137.510 144.706, 1124.795 153, 1124.323 153 C 1123.801 153, 1105.352 165.971, 1093.342 174.782 C 1088.306 178.477, 1083.040 182.738, 1081.640 184.250 C 1080.241 185.762, 1078.720 187, 1078.260 187 C 1077.412 187, 1066.584 197.190, 1048.500 215.004 C 1038.110 225.240, 1033.587 230.090, 1028.500 236.451 C 1026.850 238.514, 1024.766 241.003, 1023.869 241.982 C 1020.734 245.403, 1011.778 257.417, 1011.217 258.952 C 1010.906 259.803, 1008.459 262.922, 1005.779 265.882 C 1003.099 268.842, 1000.003 272.892, 998.899 274.882 C 997.796 276.872, 995.342 280.745, 993.446 283.489 C 991.551 286.232, 990 289.479, 990 290.703 C 990 291.928, 989.156 293.381, 988.125 293.933 C 987.094 294.485, 985.282 296.863, 984.098 299.218 C 982.915 301.573, 980.561 305.742, 978.867 308.481 C 974.709 315.206, 967.873 330.722, 967.260 334.827 C 966.987 336.657, 966.142 338.392, 965.382 338.684 C 964.622 338.975, 963.997 339.953, 963.994 340.857 C 963.990 341.761, 963.289 343.839, 962.436 345.475 C 961.583 347.112, 961.093 349.249, 961.349 350.225 C 961.631 351.304, 961.261 352, 960.406 352 C 959.549 352, 959 353.043, 959 354.672 C 959 356.141, 957.867 360.176, 956.482 363.638 C 955.096 367.100, 954.037 371.186, 954.128 372.717 C 954.219 374.247, 953.588 377.300, 952.726 379.500 C 950.914 384.126, 948.759 393.223, 949.154 394.576 C 949.303 395.084, 948.841 396.554, 948.128 397.842 C 947.396 399.164, 946.696 404.389, 946.521 409.842 C 946.351 415.154, 945.974 420.175, 945.684 421 C 945.393 421.825, 944.624 424.868, 943.975 427.761 C 942.410 434.740, 937.400 441.920, 928.250 450.300 C 927.013 451.433, 926 453.154, 926 454.124 C 926 455.094, 924.650 456.684, 923 457.659 C 921.350 458.634, 920 459.796, 920 460.242 C 920 460.688, 917.866 463.178, 915.258 465.776 C 912.650 468.374, 906.988 474.550, 902.676 479.500 C 898.363 484.450, 892.915 490.300, 890.570 492.500 C 888.224 494.700, 885.092 498.434, 883.610 500.798 C 882.127 503.162, 880.227 505.359, 879.387 505.682 C 877.880 506.260, 877.177 507.188, 869.721 518.430 C 865.330 525.052, 860.646 538.132, 861.233 542.131 C 861.456 543.651, 861.270 544.667, 860.819 544.388 C 859.621 543.648, 859.831 545.871, 861.468 551.267 C 863.086 556.599, 871.405 567, 874.051 567 C 874.970 567, 877.358 568.111, 879.359 569.469 C 881.360 570.827, 883.690 571.672, 884.536 571.348 C 885.382 571.023, 886.985 571.582, 888.098 572.589 C 889.779 574.110, 890.268 574.184, 890.985 573.025 C 891.683 571.895, 892.137 571.869, 893.363 572.886 C 894.197 573.578, 896.143 574.044, 897.689 573.921 C 903.805 573.436, 912 574.054, 912 575 C 912 575.550, 911.170 576, 910.155 576 C 909.140 576, 907.453 576.958, 906.405 578.129 C 905.357 579.299, 903.095 581.212, 901.378 582.379 C 896.810 585.483, 887.021 592.986, 885.081 594.871 C 884.158 595.767, 881.400 598.253, 878.952 600.396 C 864.843 612.743, 855.410 622.091, 848.404 630.668 C 844.057 635.989, 839.329 641.509, 837.899 642.934 C 836.468 644.359, 834.558 646.955, 833.654 648.702 C 832.751 650.449, 831.130 652.496, 830.053 653.251 C 828.975 654.005, 827.606 655.720, 827.009 657.061 C 826.412 658.403, 824.365 661.745, 822.462 664.489 C 820.558 667.232, 819 670.209, 819 671.104 C 819 671.998, 818.174 673.803, 817.164 675.115 C 814.542 678.521, 814.886 686.769, 817.805 690.479 C 819.012 692.014, 820 693.876, 820 694.618 C 820 695.360, 822.138 697.111, 824.750 698.511 C 827.363 699.910, 832.075 703.090, 835.222 705.577 C 840.921 710.081, 842.160 710.571, 860.500 715.571 C 883.287 721.784, 923.361 724.156, 944 720.513 C 949.225 719.591, 955.300 718.699, 957.500 718.530 C 962.992 718.108, 968.562 716.562, 979.331 712.469 C 987.813 709.246, 1001.787 702.705, 1006.500 699.753 C 1011.052 696.901, 1027.046 683.698, 1030.804 679.690 C 1031.737 678.695, 1033.913 676.445, 1035.641 674.690 C 1039.290 670.983, 1045.252 663.267, 1047.021 659.960 C 1047.695 658.701, 1050.220 654.990, 1052.632 651.714 C 1055.043 648.438, 1058.202 643.450, 1059.651 640.629 C 1061.100 637.808, 1062.929 634.263, 1063.716 632.750 C 1064.503 631.237, 1065.590 630, 1066.132 630 C 1066.674 630, 1066.842 630.447, 1066.505 630.993 C 1066.167 631.539, 1065.730 633.676, 1065.534 635.743 C 1065.337 637.809, 1064.854 641.396, 1064.461 643.714 C 1063.972 646.597, 1064.255 649.482, 1065.355 652.847 C 1067.276 658.719, 1071.851 666, 1073.621 666 C 1074.317 666, 1075.475 666.788, 1076.193 667.750 C 1076.912 668.712, 1079.075 670.310, 1081 671.300 C 1082.925 672.291, 1085.625 673.724, 1087 674.485 C 1090.471 676.407, 1102.501 678.794, 1115.024 680.046 C 1123.511 680.895, 1128.004 680.795, 1138.035 679.533 C 1158.449 676.967, 1168.182 675.358, 1174 673.590 C 1177.025 672.670, 1180.850 671.541, 1182.500 671.079 C 1184.150 670.618, 1186.850 669.514, 1188.500 668.627 C 1190.150 667.739, 1192.294 667.010, 1193.264 667.006 C 1194.234 667.003, 1195.809 666.598, 1196.764 666.107 C 1197.719 665.615, 1200.975 664.659, 1204 663.981 C 1211.831 662.227, 1242.254 647.051, 1247.746 642.159 C 1249.136 640.921, 1252.288 638.522, 1254.751 636.827 C 1259.940 633.257, 1286.134 607.321, 1288.661 603.250 C 1294.892 593.217, 1299.430 586.807, 1301.403 585.255 C 1303.105 583.916, 1307.859 582.996, 1320.093 581.637 C 1329.117 580.635, 1337.534 579.406, 1338.797 578.907 C 1340.060 578.408, 1342.100 578, 1343.329 578 C 1344.558 578, 1348.025 577.315, 1351.032 576.479 C 1354.039 575.642, 1360.100 574.271, 1364.500 573.433 C 1368.900 572.595, 1374.525 571.514, 1377 571.031 C 1379.475 570.547, 1384.486 569.016, 1388.135 567.628 C 1391.784 566.239, 1394.985 565.318, 1395.246 565.580 C 1395.508 565.842, 1397.023 565.550, 1398.611 564.932 C 1400.200 564.314, 1403.975 563.157, 1407 562.362 C 1414.139 560.484, 1423.276 556.869, 1434.608 551.438 C 1439.617 549.037, 1445.917 546.328, 1448.608 545.418 C 1451.298 544.508, 1454.694 542.917, 1456.154 541.882 C 1457.614 540.847, 1459.295 540, 1459.889 540 C 1460.800 540, 1464.447 538.039, 1473 532.953 C 1473.825 532.463, 1476.300 531.153, 1478.500 530.042 C 1480.700 528.931, 1485.200 526.211, 1488.500 523.997 C 1491.800 521.783, 1495.782 519.190, 1497.349 518.236 C 1498.917 517.281, 1502.356 514.813, 1504.993 512.750 C 1507.629 510.687, 1510.109 509, 1510.504 509 C 1510.899 509, 1513.372 507.200, 1516 505 C 1518.628 502.800, 1521.252 501, 1521.832 501 C 1522.412 501, 1523.475 500.194, 1524.193 499.209 C 1524.912 498.224, 1527.075 496.358, 1529 495.062 C 1530.925 493.767, 1533.850 491.430, 1535.500 489.871 C 1537.150 488.311, 1542.550 483.319, 1547.500 478.777 C 1559.305 467.947, 1570.106 457.091, 1583 443.097 C 1592.594 432.685, 1598.198 426.966, 1605 420.644 C 1609.655 416.317, 1615.055 409.974, 1616.174 407.517 C 1617.113 405.458, 1629.018 396.858, 1634 394.641 C 1634.825 394.274, 1637.750 392.644, 1640.500 391.020 C 1643.250 389.395, 1646.332 388.051, 1647.349 388.033 C 1648.366 388.015, 1650.616 387.393, 1652.349 386.652 C 1658.622 383.968, 1665.567 381.990, 1668.701 381.995 C 1670.462 381.998, 1674.512 381.283, 1677.701 380.406 C 1683.913 378.698, 1686.159 378.423, 1701.224 377.528 C 1706.572 377.209, 1713.097 376.505, 1715.724 375.961 C 1718.351 375.418, 1722.300 374.792, 1724.500 374.571 C 1744.376 372.571, 1751.267 371.570, 1756 369.996 C 1759.025 368.990, 1763.297 367.833, 1765.493 367.426 C 1767.689 367.019, 1772.619 365.394, 1776.448 363.815 C 1780.278 362.236, 1784.051 361.189, 1784.832 361.489 C 1785.614 361.789, 1786.759 361.637, 1787.377 361.151 C 1787.995 360.666, 1789.625 360.020, 1791 359.716 C 1797.625 358.251, 1813 349.972, 1813 347.869 C 1813 347.391, 1813.845 347, 1814.878 347 C 1815.910 347, 1817.315 346.325, 1818 345.500 C 1818.685 344.675, 1819.715 344, 1820.289 344 C 1820.863 344, 1822.045 343.362, 1822.916 342.582 C 1832.626 333.892, 1837 329.470, 1837 328.345 C 1837 327.602, 1838.800 325.369, 1841 323.381 C 1843.200 321.393, 1845 319.401, 1845 318.954 C 1845 318.507, 1846.835 315.379, 1849.077 312.003 C 1852.971 306.141, 1856.964 296.767, 1857.384 292.500 C 1857.492 291.400, 1858.110 290.607, 1858.756 290.739 C 1860.652 291.123, 1864.950 275.473, 1866.177 263.721 C 1867.264 253.309, 1867.417 252.841, 1870.686 249.971 C 1872.547 248.337, 1874.864 247, 1875.835 247 C 1876.806 247, 1878.052 246.548, 1878.604 245.996 C 1879.796 244.804, 1890.141 242, 1893.349 242 C 1894.587 242, 1896.075 241.525, 1896.656 240.944 C 1897.398 240.202, 1900.330 240.236, 1906.503 241.057 C 1914.403 242.108, 1915.388 242.059, 1916.221 240.570 C 1916.782 239.566, 1917.853 239.136, 1918.933 239.479 C 1921.212 240.202, 1922.360 238.707, 1924.289 232.500 C 1926.248 226.198, 1927.367 200.979, 1926.108 191.500 C 1922.483 164.188, 1920.893 156.619, 1916.521 145.859 C 1915.134 142.447, 1914 139.013, 1914 138.229 C 1914 135.617, 1899.894 108.076, 1895.496 102.102 C 1893.113 98.865, 1890.440 94.817, 1889.556 93.108 C 1888.672 91.399, 1887.265 90, 1886.430 90 C 1885.595 90, 1885.045 89.386, 1885.206 88.636 C 1885.524 87.161, 1872.063 72.693, 1865.075 67 C 1862.713 65.075, 1859.479 62.297, 1857.889 60.827 C 1851.686 55.088, 1832.936 44, 1829.435 44 C 1828.781 44, 1827.721 43.369, 1827.081 42.598 C 1826.442 41.827, 1824.699 40.894, 1823.209 40.524 C 1821.719 40.154, 1819.600 39.018, 1818.500 37.999 C 1816.356 36.014, 1808.689 33.038, 1805.654 33.015 C 1804.639 33.007, 1802.614 32.394, 1801.154 31.653 C 1791.911 26.963, 1772.772 21.822, 1763.500 21.540 C 1759.100 21.405, 1754.780 20.982, 1753.899 20.598 C 1753.019 20.214, 1751.894 20.019, 1751.399 20.163 C 1750.905 20.307, 1749.600 19.992, 1748.500 19.462 C 1747.276 18.873, 1741.071 18.793, 1732.500 19.255 M 1723.727 41.607 C 1723.393 41.941, 1719.930 42.346, 1716.031 42.508 C 1712.133 42.670, 1708.394 43.247, 1707.722 43.790 C 1707.050 44.333, 1703.687 45.097, 1700.248 45.487 C 1696.810 45.877, 1693.746 46.603, 1693.439 47.098 C 1693.133 47.594, 1690.996 48.016, 1688.691 48.035 C 1686.386 48.055, 1683.375 48.714, 1682 49.500 C 1680.625 50.286, 1678.126 50.945, 1676.446 50.965 C 1674.767 50.984, 1671.167 52.058, 1668.446 53.352 C 1665.726 54.646, 1660.465 57.148, 1656.755 58.912 C 1653.046 60.676, 1648.609 63.299, 1646.896 64.741 C 1643.557 67.551, 1633.218 74, 1632.053 74 C 1631.666 74, 1630.258 75.175, 1628.924 76.611 C 1627.591 78.048, 1624.025 80.920, 1621 82.994 C 1609.729 90.722, 1572.415 129.887, 1559.541 147.500 C 1557.933 149.700, 1555.382 152.850, 1553.871 154.500 C 1551.164 157.456, 1547.400 162.691, 1536.560 178.572 C 1533.530 183.012, 1530.139 187.469, 1529.025 188.477 C 1527.911 189.485, 1527 190.900, 1527 191.620 C 1527 192.341, 1525.726 194.409, 1524.168 196.215 C 1520.658 200.287, 1512.390 212.670, 1508.855 219.149 C 1507.401 221.815, 1504.812 225.589, 1503.103 227.535 C 1501.394 229.482, 1499.299 232.745, 1498.447 234.787 C 1497.595 236.829, 1495.622 239.850, 1494.061 241.500 C 1492.501 243.150, 1490.432 246.069, 1489.464 247.987 C 1485.021 256.787, 1463.637 278.414, 1457.047 280.772 C 1456.196 281.076, 1454.375 282.100, 1453 283.047 C 1443.356 289.686, 1422.313 298.324, 1413 299.466 C 1409.975 299.837, 1404.350 300.753, 1400.500 301.502 C 1392.278 303.101, 1357.472 303.825, 1338.500 302.792 C 1331.350 302.402, 1320.550 301.120, 1314.500 299.942 C 1303.697 297.838, 1299.489 297.084, 1287.500 295.105 C 1276.583 293.303, 1257.716 291.715, 1242.174 291.289 C 1229.715 290.947, 1226.421 291.149, 1224.559 292.369 C 1222.804 293.519, 1221.995 293.595, 1221.094 292.694 C 1219.906 291.506, 1207.497 291.589, 1205.526 292.798 C 1204.990 293.126, 1200.715 293.548, 1196.026 293.735 C 1191.337 293.922, 1183.944 294.979, 1179.598 296.084 C 1175.253 297.188, 1170.493 297.828, 1169.021 297.505 C 1166.705 296.996, 1150.605 301.388, 1137.500 306.104 C 1135.850 306.697, 1132.706 307.674, 1130.514 308.273 C 1128.322 308.873, 1122.022 311.583, 1116.514 314.296 C 1111.006 317.009, 1104.175 320.261, 1101.333 321.523 C 1098.492 322.784, 1095.401 324.985, 1094.464 326.414 C 1093.528 327.843, 1090.747 329.903, 1088.283 330.993 C 1085.820 332.083, 1082.386 334.122, 1080.652 335.525 C 1078.918 336.927, 1075.250 339.868, 1072.500 342.060 C 1069.750 344.252, 1066.997 346.448, 1066.381 346.939 C 1065.766 347.431, 1062.166 349.946, 1058.381 352.528 C 1054.597 355.110, 1051.338 357.660, 1051.139 358.194 C 1050.941 358.727, 1049.492 359.947, 1047.919 360.903 C 1042.817 364.006, 1014.581 389.969, 1006.090 399.366 C 1004.665 400.942, 1002.038 403.817, 1000.250 405.756 C 998.463 407.694, 997 409.892, 997 410.640 C 997 411.388, 996.604 411.888, 996.121 411.750 C 995.104 411.461, 987.880 418.194, 983.500 423.513 C 981.850 425.517, 977.476 430.384, 973.780 434.328 C 964.401 444.338, 962.077 447.061, 960.202 450.234 C 959.304 451.756, 958.092 453, 957.508 453 C 956.447 453, 942.378 468.421, 936.241 476.310 C 934.449 478.615, 931.477 482.301, 929.637 484.502 C 927.798 486.703, 925.990 489.403, 925.622 490.502 C 925.253 491.601, 922.824 494.072, 920.225 495.993 C 915.190 499.716, 913.825 501.312, 912.952 504.500 C 912.651 505.600, 911.751 506.561, 910.952 506.635 C 910.154 506.709, 908.952 506.821, 908.282 506.885 C 907.612 506.948, 903.565 511.387, 899.289 516.750 C 895.013 522.112, 891.259 526.725, 890.948 527 C 888.916 528.795, 883 541.370, 883 543.892 C 883 546.438, 883.637 547.277, 886.750 548.826 C 890.805 550.844, 906.011 553.317, 908.500 552.362 C 909.339 552.040, 910.587 552.242, 911.273 552.812 C 912.796 554.076, 925.430 553.711, 937 552.068 C 941.675 551.405, 948.745 550.693, 952.712 550.486 C 956.678 550.280, 960.811 549.636, 961.896 549.056 C 962.981 548.475, 964.943 548, 966.256 548 C 967.569 548, 970.636 547.374, 973.072 546.609 C 975.507 545.843, 980.200 544.685, 983.500 544.034 C 986.800 543.383, 991.075 542.467, 993 541.997 C 994.925 541.528, 999.650 540.389, 1003.500 539.467 C 1012.394 537.338, 1016.385 536.151, 1022 533.965 C 1024.475 533.002, 1028.525 531.915, 1031 531.550 C 1033.475 531.185, 1036.400 530.504, 1037.500 530.036 C 1043.052 527.676, 1048.245 526, 1050.008 526 C 1051.091 526, 1056.144 524.674, 1061.238 523.053 C 1066.332 521.432, 1073.650 519.556, 1077.500 518.884 C 1081.350 518.212, 1086.131 516.858, 1088.125 515.875 C 1094.557 512.702, 1113.953 505.294, 1123.500 502.363 C 1126.250 501.519, 1130.975 499.809, 1134 498.563 C 1142.404 495.102, 1145.735 493.991, 1155.500 491.393 C 1160.450 490.076, 1166.075 488.374, 1168 487.612 C 1169.925 486.849, 1174.875 485.196, 1179 483.938 C 1183.125 482.681, 1188.484 480.787, 1190.908 479.729 C 1193.332 478.672, 1198.282 477.353, 1201.908 476.798 C 1205.534 476.244, 1209.918 475.162, 1211.651 474.395 C 1213.384 473.628, 1215.213 473, 1215.714 473 C 1216.215 473, 1218.918 471.894, 1221.720 470.542 C 1224.522 469.191, 1227.986 467.791, 1229.417 467.431 C 1230.848 467.072, 1232.266 466.378, 1232.568 465.889 C 1232.871 465.400, 1234.126 465, 1235.359 465 C 1236.592 465, 1238.027 464.604, 1238.550 464.121 C 1239.072 463.637, 1241.300 462.674, 1243.500 461.980 C 1245.700 461.286, 1254.250 457.324, 1262.500 453.175 C 1270.750 449.027, 1278.380 445.479, 1279.457 445.291 C 1280.533 445.103, 1281.658 444.619, 1281.957 444.214 C 1282.255 443.810, 1284.955 442.359, 1287.955 440.989 C 1290.955 439.620, 1294.593 437.510, 1296.041 436.299 C 1298.753 434.031, 1314.050 424.965, 1319.451 422.425 C 1321.128 421.637, 1325.200 418.962, 1328.500 416.483 C 1331.800 414.003, 1335.962 411.328, 1337.750 410.538 C 1339.537 409.748, 1342.644 407.842, 1344.654 406.301 C 1350.490 401.828, 1354.222 399.738, 1377.285 388.023 C 1389.266 381.936, 1401.534 376.314, 1404.547 375.530 C 1407.559 374.745, 1410.506 373.806, 1411.094 373.442 C 1412.859 372.351, 1437.118 364.981, 1442.500 363.901 C 1465.224 359.339, 1472.730 358.696, 1495.500 359.360 C 1516.119 359.961, 1527.627 361.434, 1534.239 364.318 C 1536.033 365.101, 1539.525 366.306, 1542 366.997 C 1554.141 370.385, 1562.080 373.454, 1572.500 378.788 C 1590.411 387.957, 1596.620 390.987, 1597.500 390.989 C 1598.050 390.990, 1600.766 389.306, 1603.536 387.246 C 1612.821 380.339, 1617.467 377.280, 1622.621 374.680 C 1633.175 369.356, 1645.786 364.684, 1654.500 362.869 C 1659.450 361.838, 1667.807 360.104, 1673.071 359.015 C 1678.335 357.926, 1686.210 356.783, 1690.571 356.476 C 1694.932 356.168, 1701.200 355.510, 1704.500 355.013 C 1707.800 354.516, 1713.650 353.849, 1717.500 353.531 C 1724.541 352.950, 1732.503 351.709, 1741.192 349.839 C 1743.773 349.283, 1746.763 349.107, 1747.837 349.448 C 1748.924 349.793, 1750.390 349.473, 1751.145 348.726 C 1752.474 347.410, 1758.564 345.546, 1764.500 344.636 C 1780.072 342.252, 1789.992 337.827, 1806.861 325.745 C 1820.187 316.199, 1834.157 296.994, 1839.044 281.500 C 1840.258 277.650, 1841.645 274.073, 1842.126 273.550 C 1842.607 273.028, 1843 271.754, 1843 270.721 C 1843 269.131, 1842.498 268.943, 1839.750 269.502 C 1837.963 269.866, 1834.700 271.061, 1832.500 272.158 C 1825.915 275.441, 1807.597 282.989, 1806.200 282.995 C 1805.486 282.998, 1803.504 283.722, 1801.797 284.605 C 1795.564 287.828, 1767.159 291.478, 1754.538 290.678 C 1737.605 289.604, 1723.060 285.921, 1712.500 280.033 C 1706.673 276.784, 1701.574 273.687, 1701 273.050 C 1700.725 272.744, 1698.510 271.146, 1696.077 269.497 C 1693.644 267.849, 1688.357 263.412, 1684.327 259.639 L 1677 252.777 1677 247.233 C 1677 239.890, 1680.121 235.493, 1686.044 234.493 C 1689.111 233.974, 1690.564 234.200, 1691.891 235.402 C 1692.863 236.281, 1694.423 237, 1695.359 237 C 1696.296 237, 1699.770 239.700, 1703.080 243 C 1706.390 246.300, 1710.539 249.738, 1712.299 250.640 C 1714.060 251.543, 1717.300 253.479, 1719.500 254.943 C 1727.703 260.400, 1746.482 266.387, 1755.500 266.419 C 1778.645 266.501, 1795.814 262.623, 1815 252.977 C 1816.925 252.009, 1819.892 250.923, 1821.593 250.564 C 1823.294 250.204, 1829.594 246.974, 1835.593 243.385 C 1856.932 230.618, 1876.071 222.508, 1887.779 221.272 C 1890.683 220.965, 1893.256 220.395, 1893.497 220.004 C 1893.739 219.614, 1895.932 219.494, 1898.372 219.737 C 1902.329 220.132, 1902.888 219.928, 1903.548 217.849 C 1905.598 211.391, 1902.936 178.118, 1899.428 166.355 C 1898.093 161.876, 1897 157.467, 1897 156.557 C 1897 155.648, 1896.070 153.013, 1894.932 150.702 C 1893.795 148.391, 1891.825 143.800, 1890.555 140.500 C 1887.602 132.830, 1879.298 116.302, 1877.990 115.494 C 1877.440 115.154, 1875.111 112.091, 1872.815 108.688 C 1870.518 105.285, 1868.212 102.331, 1867.691 102.124 C 1866.405 101.613, 1857.976 92.947, 1855.500 89.589 C 1854.400 88.098, 1851.250 85.256, 1848.500 83.275 C 1845.750 81.294, 1842.912 78.847, 1842.193 77.837 C 1841.475 76.826, 1840.328 76, 1839.645 76 C 1838.962 76, 1836.850 74.439, 1834.952 72.532 C 1833.053 70.624, 1830.919 69.049, 1830.210 69.032 C 1828.924 69, 1824.211 65.942, 1820.760 62.900 C 1819.762 62.020, 1816.294 60.497, 1813.054 59.516 C 1808.905 58.260, 1807.010 57.144, 1806.643 55.743 C 1806.235 54.183, 1805.579 53.889, 1803.610 54.383 C 1802.220 54.732, 1799.622 54.382, 1797.798 53.600 C 1792.356 51.266, 1776.702 46.974, 1773.684 46.987 C 1772.136 46.994, 1769.977 46.523, 1768.888 45.940 C 1767.799 45.357, 1762.991 44.731, 1758.204 44.549 C 1753.417 44.366, 1746.350 43.501, 1742.500 42.626 C 1735.509 41.037, 1724.874 40.460, 1723.727 41.607 M 1380.864 44.705 C 1378.840 45.017, 1378.082 45.841, 1377.599 48.253 C 1376.429 54.106, 1383.228 69.605, 1387.337 70.450 C 1388.527 70.695, 1398.275 71.102, 1409 71.355 C 1429.850 71.847, 1442.229 73.005, 1459 76.032 C 1464.775 77.075, 1471.750 78.167, 1474.500 78.459 C 1481.913 79.246, 1494.128 82.017, 1497.133 83.593 C 1498.580 84.353, 1502.855 85.676, 1506.633 86.535 C 1516.012 88.665, 1535.725 94.890, 1540 97.071 C 1548.050 101.178, 1560.087 106, 1562.287 106 C 1564.705 106, 1567.867 103.214, 1569.875 99.316 C 1571.504 96.152, 1571.279 95.077, 1568.750 93.932 C 1567.513 93.372, 1565.600 92.367, 1564.500 91.698 C 1559.336 88.557, 1542.023 79.001, 1538 77.071 C 1532.117 74.249, 1517.447 68.431, 1513 67.156 C 1511.075 66.604, 1505.675 64.994, 1501 63.578 C 1496.325 62.161, 1489.800 60.555, 1486.500 60.008 C 1483.200 59.462, 1478.275 58.558, 1475.556 58.001 C 1472.837 57.444, 1469.767 57.257, 1468.733 57.585 C 1467.626 57.936, 1466.369 57.555, 1465.677 56.657 C 1464.460 55.081, 1457.286 53.394, 1446 52.030 C 1442.425 51.598, 1435.900 50.487, 1431.500 49.562 C 1406.824 44.371, 1404.206 43.993, 1394 44.144 C 1388.225 44.230, 1382.314 44.482, 1380.864 44.705 M 1441 53.500 C 1441 53.775, 1441.225 54, 1441.500 54 C 1441.775 54, 1442 53.775, 1442 53.500 C 1442 53.225, 1441.775 53, 1441.500 53 C 1441.225 53, 1441 53.225, 1441 53.500 M 1353.500 96.674 C 1325.385 99.528, 1297.011 104.752, 1277.675 110.634 C 1266.882 113.918, 1265.827 114.613, 1260.446 122 C 1257.842 125.575, 1252.954 131.650, 1249.585 135.500 C 1246.215 139.350, 1240.794 145.875, 1237.537 150 C 1234.280 154.125, 1230.552 158.554, 1229.252 159.842 C 1224.825 164.229, 1226.754 165.659, 1244.068 170.821 C 1247.680 171.899, 1255.105 174.459, 1260.568 176.510 C 1266.031 178.562, 1273.875 181.266, 1278 182.520 C 1287.058 185.272, 1291.521 186.814, 1295.500 188.567 C 1297.150 189.294, 1304.443 191.760, 1311.706 194.048 L 1324.912 198.209 1331.727 195.604 C 1335.475 194.172, 1338.986 193, 1339.528 193 C 1340.070 193, 1344.561 191.386, 1349.507 189.414 C 1359.538 185.414, 1364.691 183.499, 1380 178.083 C 1393.829 173.191, 1412.702 166.142, 1416.651 164.394 C 1418.384 163.627, 1420.720 163, 1421.842 163 C 1424.096 163, 1438.019 158.238, 1439.324 157.020 C 1439.778 156.597, 1440.310 155.182, 1440.508 153.876 C 1441.057 150.240, 1444.380 137.418, 1450.194 116.500 C 1454.997 99.217, 1456.391 101.113, 1436.500 97.873 C 1420.902 95.332, 1417.356 95.110, 1393.500 95.178 C 1378.862 95.220, 1361.382 95.874, 1353.500 96.674 M 1475.968 108.118 C 1475.358 110.382, 1474.861 113.645, 1474.864 115.368 C 1474.866 117.090, 1473.820 122.100, 1472.540 126.500 C 1471.260 130.900, 1469.292 137.650, 1468.168 141.500 C 1465.688 149.996, 1464.671 157.109, 1465.722 158.619 C 1466.815 160.191, 1474.857 164.094, 1486 168.461 C 1491.225 170.509, 1498.069 173.493, 1501.209 175.092 C 1504.349 176.692, 1507.412 178, 1508.015 178 C 1508.619 178, 1510.054 175.863, 1511.205 173.250 C 1512.356 170.637, 1514.106 167.600, 1515.093 166.500 C 1522.600 158.136, 1528.368 151.043, 1529.693 148.549 C 1530.554 146.926, 1531.886 144.971, 1532.653 144.204 C 1533.419 143.438, 1534.723 141.503, 1535.549 139.905 C 1536.375 138.307, 1537.479 137, 1538.002 137 C 1539.533 137, 1547.066 126.915, 1546.373 125.794 C 1544.065 122.061, 1489.330 104.012, 1480.289 104.003 C 1477.372 104, 1476.975 104.378, 1475.968 108.118 M 1707.851 105.483 C 1707.585 105.748, 1705.808 106.165, 1703.901 106.409 C 1689.181 108.294, 1672.255 120.356, 1666.577 133.009 C 1660.775 145.936, 1660.782 166.031, 1666.590 172.093 C 1670.308 175.974, 1675.285 176.840, 1679.824 174.395 C 1685.144 171.531, 1686.988 167.714, 1687.021 159.500 C 1687.076 145.835, 1690.064 139.391, 1698.691 134.335 C 1705.232 130.502, 1713.634 129.513, 1721.327 131.672 C 1727.405 133.377, 1730.361 135.719, 1738.609 145.365 C 1741.489 148.733, 1742.124 149, 1747.255 149 C 1752.342 149, 1753.045 148.712, 1755.896 145.465 C 1760.191 140.574, 1760.231 134.369, 1756.009 128.005 C 1748.624 116.872, 1738.568 109.719, 1725.936 106.614 C 1719.762 105.096, 1708.916 104.417, 1707.851 105.483 M 1208.500 134.919 C 1185.451 145.606, 1161.934 157.757, 1153.788 163.190 C 1148.997 166.385, 1144.792 169, 1144.443 169 C 1144.094 169, 1140.216 171.475, 1135.825 174.500 C 1131.433 177.525, 1127.496 180, 1127.075 180 C 1126.654 180, 1125.495 180.900, 1124.500 182 C 1122.750 183.934, 1122.753 184, 1124.595 184 C 1130.376 184, 1142.223 180.318, 1162.500 172.220 C 1168.692 169.746, 1173.986 167.913, 1185.343 164.307 C 1194.669 161.346, 1196.326 160.143, 1205.172 149.906 C 1216.528 136.764, 1219.457 132.724, 1218.815 131.086 C 1218.642 130.644, 1214 132.369, 1208.500 134.919 M 1442 181.087 C 1439.525 182.211, 1430.525 185.545, 1422 188.497 C 1413.475 191.448, 1400.650 196.139, 1393.500 198.920 C 1386.350 201.702, 1380.050 203.985, 1379.500 203.995 C 1378.950 204.005, 1377.306 204.635, 1375.847 205.397 C 1374.387 206.158, 1371.462 207.332, 1369.347 208.006 C 1364.901 209.421, 1346.215 216.417, 1340.868 218.668 C 1337.405 220.126, 1337.204 220.477, 1336.555 226.217 C 1335.967 231.418, 1336.145 232.527, 1337.865 234.368 C 1339.641 236.269, 1339.700 236.714, 1338.409 238.468 C 1336.607 240.916, 1336.873 266.273, 1338.720 268.120 C 1339.550 268.950, 1339.561 269.730, 1338.759 271.014 C 1337.125 273.631, 1339.573 278.834, 1342.877 279.763 C 1347.063 280.939, 1376.011 280.236, 1377.597 278.919 C 1378.658 278.039, 1379.110 278.124, 1379.556 279.286 C 1380.020 280.494, 1381.379 280.690, 1386.318 280.263 C 1389.718 279.969, 1393.749 279.097, 1395.276 278.325 C 1396.802 277.553, 1399.727 276.994, 1401.776 277.083 C 1405.747 277.254, 1423.047 271.743, 1431.745 267.537 C 1434.630 266.141, 1437.195 265, 1437.445 265 C 1438.547 265, 1446.767 258.889, 1449.437 256.085 C 1451.052 254.388, 1452.939 253, 1453.630 253 C 1454.321 253, 1455.508 252.113, 1456.267 251.029 C 1457.026 249.945, 1460.427 246.120, 1463.824 242.528 C 1467.221 238.937, 1470 235.342, 1470 234.540 C 1470 233.738, 1471.148 231.826, 1472.551 230.291 C 1475.757 226.783, 1478.851 222.237, 1483.513 214.186 C 1485.524 210.713, 1487.825 207.620, 1488.627 207.313 C 1490.571 206.567, 1494.281 199.175, 1493.601 197.403 C 1493.305 196.631, 1492.461 196, 1491.726 196 C 1489.221 196, 1466.596 186.547, 1456.865 181.435 C 1451.244 178.482, 1447.909 178.404, 1442 181.087 M 1194 186.646 C 1188.775 188.605, 1183.600 190.614, 1182.500 191.111 C 1181.400 191.607, 1176 193.553, 1170.500 195.435 C 1156.850 200.105, 1148.822 203.565, 1147.931 205.163 C 1147.521 205.898, 1146.216 209.381, 1145.031 212.903 C 1143.323 217.977, 1143.143 219.470, 1144.162 220.100 C 1145.146 220.708, 1144.925 221.450, 1143.224 223.262 C 1141.904 224.666, 1141 226.900, 1141 228.755 C 1141 230.475, 1140.615 232.120, 1140.144 232.411 C 1139.103 233.054, 1133.997 246.740, 1130.970 257 C 1129.753 261.125, 1128.362 264.928, 1127.879 265.450 C 1127.395 265.973, 1127 267.134, 1127 268.031 C 1127 268.927, 1125.877 271.875, 1124.504 274.581 C 1123.131 277.286, 1122.006 280.317, 1122.004 281.316 C 1122.002 282.314, 1121.514 284.040, 1120.919 285.151 C 1120.324 286.262, 1120.030 287.364, 1120.265 287.599 C 1120.500 287.834, 1123.210 286.912, 1126.288 285.551 C 1132.217 282.929, 1144.244 279.433, 1152.416 277.956 C 1155.120 277.468, 1157.797 276.603, 1158.366 276.034 C 1158.935 275.465, 1160.666 275, 1162.214 275 C 1163.761 275, 1165.809 274.598, 1166.764 274.107 C 1170.005 272.439, 1179.479 270.655, 1184.500 270.767 C 1187.250 270.828, 1190.850 270.483, 1192.500 270 C 1201.360 267.407, 1266.189 267.224, 1273 269.773 C 1274.375 270.287, 1279.828 270.767, 1285.118 270.839 C 1293.108 270.948, 1295.648 271.394, 1300.118 273.475 C 1305.946 276.188, 1311.409 276.743, 1312.678 274.750 C 1313.997 272.677, 1313.068 221.692, 1311.686 220.338 C 1311.034 219.699, 1308.925 218.727, 1307 218.178 C 1305.075 217.629, 1296.300 214.623, 1287.500 211.497 C 1278.700 208.372, 1267.675 204.555, 1263 203.015 C 1254.493 200.213, 1230.201 191.857, 1213.752 186.075 C 1208.940 184.384, 1204.665 183.019, 1204.252 183.042 C 1203.838 183.066, 1199.225 184.687, 1194 186.646 M 1107 212.538 C 1103.425 213.244, 1096.490 214.563, 1091.589 215.468 C 1086.688 216.374, 1081.288 217.826, 1079.589 218.694 C 1072.607 222.265, 1034.386 263.792, 1026.386 276.501 C 1025.347 278.150, 1022.569 282.200, 1020.212 285.500 C 1011.633 297.512, 1001.558 315.425, 995.463 329.500 C 994.511 331.700, 992.793 334.397, 991.647 335.492 C 989.730 337.326, 989.705 337.512, 991.343 337.827 C 992.321 338.016, 994.625 337.457, 996.462 336.585 C 998.299 335.713, 1000.239 335, 1000.772 335 C 1001.807 335, 1025.473 325.652, 1033 322.271 C 1035.475 321.159, 1041.325 318.799, 1046 317.026 C 1066.575 309.222, 1072.809 306.751, 1077.500 304.541 C 1080.250 303.246, 1084.211 301.465, 1086.303 300.584 C 1089.124 299.395, 1090.603 297.887, 1092.031 294.741 C 1093.090 292.408, 1093.966 289.683, 1093.978 288.685 C 1093.990 287.687, 1094.848 284.762, 1095.883 282.185 C 1096.919 279.608, 1100.123 270.075, 1103.004 261 C 1105.884 251.925, 1109.031 242.700, 1109.997 240.500 C 1110.963 238.300, 1112.280 234.250, 1112.924 231.500 C 1113.568 228.750, 1115.006 224.736, 1116.120 222.580 C 1117.234 220.425, 1117.934 217.854, 1117.676 216.867 C 1117.418 215.881, 1117.835 214.552, 1118.603 213.914 C 1122.371 210.787, 1118.306 210.305, 1107 212.538 M 1019.500 353.286 C 1012.998 355.612, 988.240 365.361, 983.416 367.495 C 978.425 369.702, 978.249 369.926, 975.914 377.048 C 974.235 382.170, 973.870 384.457, 974.687 384.729 C 975.503 385.001, 975.282 386.367, 973.947 389.308 C 972.900 391.614, 972.034 394.288, 972.022 395.250 C 971.996 397.338, 973.837 397.587, 974.601 395.599 C 974.896 394.828, 975.895 394.313, 976.819 394.455 C 977.744 394.597, 979.175 393.718, 980 392.501 C 983.488 387.359, 991.763 378.562, 995.106 376.442 C 997.090 375.185, 1002.040 371.076, 1006.106 367.311 C 1010.173 363.547, 1015.638 358.935, 1018.250 357.064 C 1020.862 355.192, 1023 353.287, 1023 352.830 C 1023 352.374, 1022.888 352.048, 1022.750 352.106 C 1022.612 352.165, 1021.150 352.696, 1019.500 353.286 M 1463 390.145 C 1459.975 390.620, 1454.800 391.232, 1451.500 391.506 C 1445.167 392.031, 1428.203 396.902, 1421.562 400.102 C 1419.396 401.146, 1417.038 402, 1416.321 402 C 1415.049 402, 1401.983 407.322, 1399 409.055 C 1390.799 413.821, 1386.350 416, 1384.822 416 C 1381.119 416, 1383.387 428.210, 1388.636 436.530 C 1390.360 439.263, 1392.835 443.351, 1394.136 445.613 C 1397.647 451.720, 1404.461 461.234, 1406.878 463.405 C 1408.045 464.453, 1409 465.942, 1409 466.714 C 1409 467.486, 1409.451 467.839, 1410.002 467.499 C 1410.553 467.158, 1411.445 468.039, 1411.984 469.457 C 1412.963 472.033, 1426.626 486, 1428.167 486 C 1428.616 486, 1430.931 487.487, 1433.311 489.304 C 1435.692 491.121, 1439.071 493.201, 1440.820 493.925 C 1442.569 494.650, 1444 495.638, 1444 496.121 C 1444 496.605, 1444.914 497, 1446.031 497 C 1447.149 497, 1448.322 497.675, 1448.638 498.500 C 1448.955 499.325, 1450.178 500.002, 1451.357 500.004 C 1452.536 500.006, 1454.939 500.885, 1456.698 501.957 C 1458.676 503.164, 1462.745 504.165, 1467.368 504.584 C 1474.037 505.189, 1475.229 505.022, 1478.447 503.033 C 1480.430 501.807, 1482.708 500.149, 1483.509 499.348 C 1484.310 498.547, 1485.953 497.702, 1487.161 497.469 C 1488.369 497.236, 1490.739 495.774, 1492.429 494.218 C 1494.118 492.663, 1497.525 490.078, 1500 488.474 C 1502.475 486.870, 1505.906 484.420, 1507.625 483.029 C 1509.344 481.638, 1513.596 478.250, 1517.074 475.500 C 1520.551 472.750, 1524.334 469.600, 1525.479 468.500 C 1526.625 467.400, 1529.492 464.925, 1531.851 463 C 1534.210 461.075, 1538.921 456.606, 1542.320 453.068 C 1548.855 446.266, 1549.772 445.353, 1563.374 432.086 C 1568.118 427.458, 1572 423.066, 1572 422.326 C 1572 421.586, 1572.900 420.210, 1574 419.268 C 1576.622 417.023, 1576.524 414.777, 1573.742 413.350 C 1558.493 405.529, 1555.282 404.012, 1553.973 404.006 C 1553.132 404.003, 1551.374 403.250, 1550.065 402.333 C 1548.722 401.392, 1545.246 400.535, 1542.092 400.367 C 1533.314 399.898, 1528.817 399.060, 1524.500 397.089 C 1522.300 396.085, 1515.100 394.433, 1508.500 393.418 C 1500.719 392.222, 1496.067 391.033, 1495.269 390.037 C 1494.373 388.918, 1493.827 388.816, 1493.264 389.662 C 1492.696 390.516, 1489.703 390.594, 1481.995 389.956 C 1470.143 388.975, 1470.475 388.972, 1463 390.145 M 1354 429.329 C 1351.525 430.523, 1347.901 432.724, 1345.946 434.219 C 1343.992 435.715, 1340.617 437.672, 1338.446 438.569 C 1336.276 439.465, 1333.794 440.825, 1332.932 441.590 C 1330.744 443.530, 1305.811 455.986, 1304.100 455.994 C 1303.330 455.997, 1299.505 457.857, 1295.600 460.127 C 1291.008 462.797, 1287.366 464.221, 1285.289 464.159 C 1283.523 464.107, 1281.809 464.499, 1281.480 465.032 C 1281.151 465.564, 1281.385 466, 1282 466 C 1282.615 466, 1282.816 466.489, 1282.446 467.087 C 1282.077 467.685, 1280.940 467.956, 1279.920 467.689 C 1278.900 467.423, 1275.688 468.431, 1272.783 469.930 L 1267.500 472.656 1267.211 479.603 C 1266.931 486.333, 1267.071 486.801, 1271.711 494.567 C 1274.345 498.976, 1277.155 503.914, 1277.956 505.542 C 1281.542 512.829, 1287.446 522.199, 1289.246 523.460 C 1290.330 524.219, 1290.945 525.281, 1290.612 525.819 C 1289.956 526.880, 1305.017 541.067, 1307.979 542.178 C 1308.973 542.551, 1310.397 543.676, 1311.143 544.678 C 1311.889 545.680, 1316.888 548.693, 1322.252 551.374 C 1332.862 556.677, 1335.047 556.896, 1347.500 553.911 C 1350.250 553.252, 1354.525 552.596, 1357 552.453 C 1361.767 552.177, 1376.133 549.047, 1382 547.005 C 1383.925 546.335, 1389.252 544.441, 1393.838 542.796 C 1398.423 541.151, 1403.148 539.682, 1404.338 539.532 C 1406.931 539.204, 1427.605 530.390, 1430.444 528.401 C 1431.545 527.631, 1433.443 527, 1434.663 527 C 1435.884 527, 1437.160 526.550, 1437.500 526 C 1437.840 525.450, 1438.959 525, 1439.988 525 C 1441.920 525, 1445 522.527, 1445 520.975 C 1445 520.491, 1443.313 519.357, 1441.250 518.457 C 1437.806 516.955, 1435.939 516.014, 1429.712 512.645 C 1424.762 509.967, 1418.551 505.631, 1415.242 502.542 C 1410.067 497.711, 1408.191 496.012, 1402.056 490.596 C 1393.855 483.357, 1370.511 451.476, 1369.419 446.023 C 1368.656 442.215, 1366.461 438.469, 1365.158 438.750 C 1364.521 438.887, 1364 437.944, 1364 436.653 C 1364 435.362, 1363.100 433.268, 1362 432 C 1360.900 430.732, 1360 429.088, 1360 428.347 C 1360 426.616, 1359.430 426.709, 1354 429.329 M 1245.500 482 C 1245.160 482.550, 1243.775 483, 1242.421 483 C 1241.068 483, 1238.282 484.037, 1236.230 485.305 C 1232.558 487.575, 1225.320 490.148, 1221.601 490.505 C 1220.556 490.606, 1219.117 491.488, 1218.402 492.465 C 1217.521 493.670, 1216.351 494.054, 1214.769 493.657 C 1213.108 493.240, 1212.083 493.637, 1211.210 495.036 C 1209.774 497.334, 1207.798 497.691, 1208.638 495.500 C 1209.007 494.540, 1208.620 494, 1207.563 494 C 1206.546 494, 1206.025 494.671, 1206.206 495.750 C 1206.428 497.073, 1205.768 497.530, 1203.500 497.622 C 1200.552 497.743, 1174.162 506.133, 1170.764 508.030 C 1169.809 508.564, 1167.982 509, 1166.705 509 C 1165.427 509, 1163.509 509.661, 1162.441 510.468 C 1159.887 512.400, 1158.920 512.373, 1159.680 510.391 C 1160.069 509.378, 1158.222 510.160, 1154.699 512.499 C 1149.916 515.675, 1148.581 517.296, 1145.532 523.635 C 1143.569 527.715, 1140.884 533.920, 1139.565 537.423 C 1137.409 543.151, 1137.316 544.006, 1138.640 545.897 C 1139.451 547.054, 1141.100 548.008, 1142.307 548.017 C 1143.513 548.026, 1148.550 549.154, 1153.500 550.523 C 1165.562 553.858, 1179.879 556.675, 1188.877 557.483 C 1192.935 557.848, 1197.417 558.588, 1198.838 559.128 C 1200.259 559.669, 1208.603 560.521, 1217.381 561.022 C 1227.376 561.592, 1233.605 562.361, 1234.049 563.080 C 1234.581 563.939, 1234.854 563.937, 1235.144 563.069 C 1235.545 561.864, 1236.230 561.820, 1244.500 562.455 C 1248.386 562.754, 1292.178 563.251, 1296.405 563.044 C 1296.903 563.020, 1296.505 562.111, 1295.521 561.024 C 1294.538 559.937, 1293.409 559.247, 1293.013 559.492 C 1292.617 559.737, 1291.804 558.865, 1291.207 557.555 C 1290.610 556.245, 1289.194 554.879, 1288.061 554.519 C 1286.927 554.160, 1286 553.558, 1285.999 553.183 C 1285.999 552.807, 1283.281 549.575, 1279.958 546 C 1272.685 538.173, 1258 516.640, 1258 513.801 C 1258 512.312, 1250.997 498.116, 1249.941 497.464 C 1249.423 497.144, 1249 495.389, 1249 493.563 C 1249 491.738, 1248.316 489.677, 1247.481 488.984 C 1246.401 488.088, 1246.144 486.751, 1246.592 484.362 C 1247.210 481.066, 1246.725 480.017, 1245.500 482 M 1118 523.500 C 1117.315 524.325, 1115.997 525, 1115.070 525 C 1114.143 525, 1108.821 526.800, 1103.244 529 C 1097.666 531.200, 1092.633 533, 1092.058 533 C 1090.626 533, 1074.044 539.568, 1065.500 543.519 C 1058.763 546.635, 1050.565 549.292, 1033.500 553.892 C 1019.839 557.574, 1007.571 561.189, 1005.911 562.020 C 1005.037 562.458, 1001.662 563.138, 998.411 563.531 C 995.160 563.925, 992.025 564.624, 991.445 565.084 C 990.864 565.545, 986.364 566.655, 981.445 567.550 C 946.009 574.001, 952.411 571.222, 925.716 591.741 C 923.397 593.524, 920.375 595.750, 919 596.689 C 917.625 597.628, 913.800 600.677, 910.500 603.465 C 907.200 606.253, 902.256 610.327, 899.514 612.517 C 891.357 619.033, 864.653 646.068, 860.515 652 C 858.405 655.025, 853.906 660.650, 850.517 664.500 C 844.144 671.739, 840 678.634, 840 681.996 C 840 683.059, 840.928 684.426, 842.063 685.034 C 846.796 687.567, 867.133 694.318, 875.317 696.073 C 880.166 697.113, 884.501 698.191, 884.950 698.469 C 886.150 699.211, 932.241 699.295, 941 698.572 C 955.401 697.382, 966.229 694.363, 980 687.697 C 996.958 679.488, 1013.505 666.307, 1023.500 653.044 C 1025.700 650.125, 1029.075 645.836, 1031 643.513 C 1032.925 641.190, 1036.300 636.698, 1038.500 633.529 C 1040.700 630.360, 1043.551 626.587, 1044.837 625.144 C 1046.122 623.701, 1047.803 621.014, 1048.572 619.172 C 1049.342 617.331, 1051.268 614.176, 1052.853 612.162 C 1054.437 610.148, 1056.657 606.700, 1057.786 604.500 C 1058.915 602.300, 1061.675 598.550, 1063.919 596.166 C 1066.164 593.783, 1068 591.364, 1068 590.792 C 1068 590.219, 1070.138 587.646, 1072.750 585.073 C 1075.362 582.501, 1080.650 576.984, 1084.500 572.813 C 1092.670 563.963, 1102.607 555.439, 1109.053 551.751 C 1114.697 548.523, 1116.564 544.972, 1118.389 534 C 1119.166 529.325, 1120.120 524.712, 1120.508 523.750 C 1121.372 521.608, 1119.708 521.442, 1118 523.500 M 1162.500 581.812 C 1157.628 584.475, 1148.503 589.713, 1139.133 595.225 C 1136.585 596.724, 1133.150 598.652, 1131.500 599.510 C 1129.850 600.368, 1126.700 602.164, 1124.500 603.499 C 1122.300 604.835, 1118.362 607.077, 1115.749 608.482 C 1104.658 614.442, 1088.724 634.442, 1087.406 644.057 C 1086.405 651.361, 1088.333 652.783, 1105 657.031 C 1113.453 659.185, 1127.270 659.234, 1140 657.154 C 1146.875 656.030, 1154.750 654.815, 1157.500 654.452 C 1172.155 652.520, 1204.384 641.097, 1221.388 631.809 C 1225.726 629.439, 1231.356 626.372, 1233.898 624.993 C 1236.441 623.614, 1241.441 620.243, 1245.011 617.502 C 1255.475 609.466, 1274.998 589.165, 1275.001 586.317 C 1275.001 585.868, 1269.489 585.500, 1262.751 585.500 C 1243.092 585.500, 1213.282 584.013, 1203 582.520 C 1197.775 581.761, 1190.263 580.659, 1186.307 580.070 C 1174.207 578.270, 1168.173 578.711, 1162.500 581.812" stroke="none" fill="#045404" fill-rule="evenodd"/></svg>