<?xml version="1.0" encoding="iso-8859-1"?>
<!-- Uploaded to: SVG Repo, www.svgrepo.com, Generator: SVG Repo Mixer Tools -->
<svg height="800px" width="800px" version="1.1" id="Layer_1" xmlns="http://www.w3.org/2000/svg" xmlns:xlink="http://www.w3.org/1999/xlink" 
	 viewBox="0 0 338.199 338.199" xml:space="preserve">
<g id="XMLID_856_">
	<path id="XMLID_857_" style="fill:#9DD7F5;" d="M169.1,2.625c-22.092,0-40,17.909-40,40v40c0,22.091,17.908,40,40,40
		s40-17.909,40-40v-40C209.1,20.534,191.191,2.625,169.1,2.625z"/>
	<g id="XMLID_858_">
		<path id="XMLID_859_" style="fill:#78B9EB;" d="M209.1,82.625c0,22.091-17.908,40-40,40l0,0c0-39,0-80,0-120l0,0
			c22.092,0,40,17.909,40,40V82.625z"/>
	</g>
	<g id="XMLID_860_">
		<path id="XMLID_861_" style="fill:#9DD7F5;" d="M109.199,122.625H60c-33.138,0-60,26.863-60,60h109.199V122.625z"/>
	</g>
	<g id="XMLID_862_">
		<path id="XMLID_81_" style="fill:#9DD7F5;" d="M111.895,212.625l-30.369,38.708c-20.454,26.071-15.9,63.787,10.17,84.241
			L159.1,249.66L111.895,212.625z"/>
	</g>
	<g id="XMLID_863_">
		<path id="XMLID_79_" style="fill:#78B9EB;" d="M226.305,212.625l30.369,38.708c20.454,26.071,15.9,63.787-10.17,84.241
			L179.1,249.661L226.305,212.625z"/>
	</g>
	<g id="XMLID_864_">
		<path id="XMLID_865_" style="fill:#78B9EB;" d="M229,122.625h49.199c33.138,0,60,26.863,60,60H229V122.625z"/>
	</g>
	<g id="XMLID_866_">
		<path id="XMLID_867_" style="fill:#FF9811;" d="M169.139,182.625l70.541-97.08c-19.802-14.412-44.176-22.922-70.541-22.922
			s-50.739,8.51-70.54,22.922L169.139,182.625z"/>
	</g>
	<g id="XMLID_868_">
		<path id="XMLID_869_" style="fill:#FF5023;" d="M169.139,182.625l70.541-97.08c-19.802-14.412-44.176-22.922-70.541-22.922
			C169.139,102.625,169.139,182.625,169.139,182.625z"/>
	</g>
	<g id="XMLID_870_">
		<path id="XMLID_70_" style="fill:#FF5023;" d="M169.139,182.625L98.607,85.538c-19.826,14.377-35.451,34.93-43.598,60.004
			c-8.146,25.075-7.586,50.886,0.002,74.171L169.139,182.625z"/>
	</g>
	<path id="XMLID_871_" style="fill:#FF9811;" d="M169.139,182.65v-0.025l-0.039,0.013l-0.039-0.013v0.025L55.01,219.702
		c7.547,23.297,22.265,44.51,43.594,60.006c21.304,15.478,45.989,22.92,70.45,22.918v0.001c0.016,0,0.03-0.001,0.046-0.001
		s0.03,0.001,0.046,0.001v-0.001c24.461,0.002,49.147-7.44,70.45-22.918c21.329-15.496,36.047-36.709,43.594-60.006L169.139,182.65z
		"/>
	<g id="XMLID_872_">
		<path id="XMLID_67_" style="fill:#D80027;" d="M169.139,182.625l-0.006,120.001c24.489,0.021,49.212-7.421,70.541-22.918
			c21.331-15.497,36.047-36.709,43.597-60.007L169.139,182.625z"/>
	</g>
	<g id="XMLID_873_">
		<path id="XMLID_65_" style="fill:#802812;" d="M169.139,182.625l114.127,37.089c7.588-23.286,8.148-49.098,0-74.171
			c-8.146-25.076-23.77-45.626-43.597-60.006L169.139,182.625z"/>
	</g>
	<g id="XMLID_877_">
		<polygon id="XMLID_60_" style="fill:#FFDA44;" points="207.346,130.06 230.957,202.734 169.139,247.648 107.319,202.734 
			130.933,130.06 		"/>
	</g>
	<g id="XMLID_878_">
		<polygon id="XMLID_58_" style="fill:#FF9811;" points="207.346,130.06 230.957,202.734 169.139,247.648 169.1,130.06 		"/>
	</g>
</g>
</svg>